<svg xmlns="http://www.w3.org/2000/svg" viewBox="0 0 1080 1080"><defs><style>.cls-1{fill:#fff;}.cls-2{fill:#0777bd;}.cls-3{fill:#b01824;}</style></defs><title>1990_Designs</title><g id="Condensed_Logo_on_White" data-name="Condensed Logo on White"><rect class="cls-1" x="-0.16" y="0.52" width="1081.35" height="1077.34"/><path d="M538.09,534q-1.79-45.49-31.9-74.94-32-31.29-82-31.3t-82,31.3q-32,31.32-32,80.81t32,80.81q32,31.32,82,31.29A123,123,0,0,0,451.31,649L363.55,779.94h38.62L517.34,607.8q18.72-26.53,20.65-60.18c.15-2.56.23-5.13.23-7.76C538.22,537.89,538.17,535.94,538.09,534Zm-55.94,63.15Q460.09,619,424.17,619t-58-21.84q-22.06-21.84-22.06-57.28t22.06-57.25q22.11-21.84,58-21.84t58,21.84q22.07,21.83,22.09,57.25T482.15,597.14Z"/><rect class="cls-2" x="736.08" y="360.92" width="27.75" height="180.92"/><path class="cls-2" d="M762.58,523.55a105.7,105.7,0,0,0-27.25-57.22c-1.39-1.52-2.81-3-4.3-4.45q-32.87-32.46-80.15-32.46t-80.13,32.46Q540.68,491.52,538.09,534c-.15,2.63-.23,5.31-.23,8,0,1.89,0,3.74.13,5.61q1.82,44,32.76,74.54,32.87,32.46,80.13,32.43T731,622.16Q763.91,589.7,763.89,542A126,126,0,0,0,762.58,523.55ZM711,602.39q-24.49,24.69-60.16,24.7t-60.16-24.7q-24.5-24.72-24.5-60.38t24.5-60.37q24.49-24.72,60.16-24.72T711,481.64q24.5,24.69,24.49,60.37T711,602.39Z"/><path class="cls-3" d="M764.9,333.68a20.74,20.74,0,1,1,6-14.61A19.87,19.87,0,0,1,764.9,333.68Z"/></g></svg>