<svg xmlns="http://www.w3.org/2000/svg" viewBox="0 0 1080 1080"><defs><style>.cls-1{fill:#fff;}.cls-2{fill:#0777bd;}.cls-3{fill:#b01824;}</style></defs><title>1990_Designs</title><g id="Condensed_Logo_on_White" data-name="Condensed Logo on White"><rect width="1081.35" height="1080.69"/><path class="cls-1" d="M538.26,535.49q-1.78-45.51-31.9-74.95-32-31.28-82-31.29t-82,31.29q-32,31.32-32,80.81t32,80.81q32,31.32,82,31.29a123,123,0,0,0,27.15-2.93L363.72,781.43h38.62L517.5,609.3q18.74-26.55,20.65-60.19c.16-2.55.23-5.13.23-7.76C538.38,539.38,538.33,537.43,538.26,535.49Zm-55.94,63.14q-22.06,21.84-58,21.84t-58-21.84q-22.06-21.84-22.07-57.28t22.07-57.25q22.11-21.84,58-21.84t58,21.84q22.07,21.84,22.09,57.25T482.32,598.63Z"/><rect class="cls-2" x="736.24" y="362.41" width="27.75" height="180.92"/><path class="cls-2" d="M762.74,525.05a105.63,105.63,0,0,0-27.25-57.23c-1.39-1.52-2.8-3-4.29-4.45Q698.32,430.91,651,430.91t-80.13,32.46Q540.85,493,538.26,535.49c-.16,2.62-.23,5.3-.23,8,0,1.89.05,3.74.12,5.61q1.83,44,32.76,74.54,32.88,32.46,80.13,32.43t80.16-32.43q32.87-32.45,32.86-80.15A124.52,124.52,0,0,0,762.74,525.05ZM711.2,603.89q-24.5,24.68-60.16,24.69t-60.16-24.69q-24.5-24.74-24.49-60.39t24.49-60.36q24.5-24.72,60.16-24.72t60.16,24.72q24.49,24.67,24.5,60.36T711.2,603.89Z"/><path class="cls-3" d="M765.07,335.17a20.76,20.76,0,1,1,6-14.61A19.89,19.89,0,0,1,765.07,335.17Z"/></g></svg>