<svg xmlns="http://www.w3.org/2000/svg" viewBox="0 0 779.27 356.94"><defs><style>.cls-1{fill:#fff;}.cls-2{fill:#b01824;}.cls-3{fill:#0d77bd;}</style></defs><title>Asset 1</title><g id="Layer_2" data-name="Layer 2"><g id="White_Logo_on_Black" data-name="White Logo on Black"><rect class="cls-1" x="253.82" y="216" width="525.44" height="11.22"/><path class="cls-1" d="M61.77,77.57H73.29V212H59.85V92.35l-30.15,9L26.25,89.85Z"/><path class="cls-1" d="M254,121a45.52,45.52,0,0,1-8.25,26.88l-139.86,209H90.4L219.58,164.22a49.16,49.16,0,0,1-10.74,1.16q-19.77,0-32.45-12.39t-12.67-32q0-19.59,12.67-32t32.45-12.39q19.77,0,32.45,12.39T254,121ZM185.9,98.37Q177.15,107,177.16,121t8.74,22.65q8.73,8.64,22.94,8.64t22.95-8.64q8.73-8.64,8.73-22.65t-8.73-22.66q-8.74-8.64-22.95-8.64T185.9,98.37Z"/><path class="cls-1" d="M163.57,121a45.53,45.53,0,0,1-8.26,26.88l-139.86,209H0L129.19,164.22a49.3,49.3,0,0,1-10.74,1.16Q98.67,165.38,86,153T73.33,121q0-19.59,12.67-32t32.45-12.39q19.77,0,32.44,12.39T163.57,121ZM95.5,98.37Q86.77,107,86.77,121t8.73,22.65q8.75,8.64,23,8.64t22.94-8.64q8.73-8.64,8.74-22.65t-8.74-22.66q-8.74-8.64-22.94-8.64T95.5,98.37Z"/><path class="cls-1" d="M395.2,77q18.87,0,30.52,13.34a46.43,46.43,0,0,1,11.64,31.54c0,1.25-.11,3-.34,5.27H362.39q1.69,12.92,11,20.48t22.86,7.57a33.41,33.41,0,0,0,16.75-4,26.91,26.91,0,0,0,10.62-10.45l9.86,5.78a40.32,40.32,0,0,1-15.3,14.28,45.53,45.53,0,0,1-22.1,5.27q-20.06,0-32.64-12.58t-12.58-32q0-19,12.41-31.79T395.2,77Zm0,10.88q-13.26,0-22.18,7.9a32.14,32.14,0,0,0-10.63,20.49H425.8q-1.69-13.43-10.37-20.91A30,30,0,0,0,395.2,87.92Z"/><path class="cls-1" d="M729.63,100.57a10.28,10.28,0,0,0,5.17,9A46,46,0,0,0,747.28,115l14.61,4.18a26.26,26.26,0,0,1,12.35,7.55q5,5.47,5,14.33a21.54,21.54,0,0,1-8.59,17.68q-8.58,6.79-22.18,6.8-12.24,0-20.83-5.44a29.08,29.08,0,0,1-12-14.11l9.52-5.61a19.84,19.84,0,0,0,8.58,10.45,27.48,27.48,0,0,0,14.71,3.83q8.32,0,13.94-3.32t5.61-10.27a10.53,10.53,0,0,0-5.1-9.18,44.47,44.47,0,0,0-12.42-5.48l-14.61-4.18a27,27,0,0,1-12.41-7.44q-5.1-5.35-5.1-14a21.77,21.77,0,0,1,8.24-17.34q8.25-7,20.83-7a34.85,34.85,0,0,1,18.19,4.67,28.74,28.74,0,0,1,11.56,12.67l-9.35,5.44q-4.93-11.91-20.4-11.9a22.58,22.58,0,0,0-12.58,3.42A11,11,0,0,0,729.63,100.57Z"/><path class="cls-2" d="M528.16,66.89a8.21,8.21,0,1,1,2.38-5.78A7.86,7.86,0,0,1,528.16,66.89Z"/><rect class="cls-1" x="516.77" y="77.26" width="11.22" height="88.63"/><path class="cls-1" d="M614.11,78.93h11.22v81.6q0,18.36-12.58,28.9T582.66,200q-29.92,0-40.29-20.74l9.86-5.61q7.65,15.47,30.43,15.47,14.61,0,23-7.73t8.42-20.83V147.27Q602.38,166,579.77,166a42.11,42.11,0,0,1-31-12.92q-12.84-12.92-12.83-31.62t12.83-31.62a42.15,42.15,0,0,1,31-12.92q22.61,0,34.34,18.7Zm-57.29,66.39a33.87,33.87,0,0,0,47.6,0,32.69,32.69,0,0,0,9.69-23.89,32.65,32.65,0,0,0-9.69-23.88,33.85,33.85,0,0,0-47.6,0,32.62,32.62,0,0,0-9.7,23.88A32.66,32.66,0,0,0,556.82,145.32Z"/><path class="cls-1" d="M673.8,77.5q15.76,0,24.87,9.62t9.1,25.91v53.22H696.33V113q0-11.61-6.15-18t-17.42-6.42q-12.48,0-20.28,7.89t-7.8,24.35v45.42H633.24V79.58h11.44V93.1Q654.39,77.5,673.8,77.5Z"/><path class="cls-1" d="M459.22,101a10.28,10.28,0,0,0,5.17,9,46.66,46.66,0,0,0,12.48,5.43l14.61,4.17a26.16,26.16,0,0,1,12.34,7.56q5,5.47,5,14.32a21.51,21.51,0,0,1-8.59,17.68q-8.58,6.81-22.18,6.8-12.24,0-20.83-5.44a29.08,29.08,0,0,1-12-14.11l9.52-5.61a19.87,19.87,0,0,0,8.58,10.46,27.48,27.48,0,0,0,14.71,3.82q8.32,0,13.94-3.31t5.61-10.28a10.53,10.53,0,0,0-5.1-9.17,44.77,44.77,0,0,0-12.42-5.49l-14.61-4.17a27,27,0,0,1-12.41-7.44q-5.1-5.36-5.1-14a21.8,21.8,0,0,1,8.24-17.34q8.25-7,20.83-7a34.76,34.76,0,0,1,18.19,4.68,28.66,28.66,0,0,1,11.56,12.66l-9.35,5.44q-4.94-11.9-20.4-11.9a22.5,22.5,0,0,0-12.58,3.43A11,11,0,0,0,459.22,101Z"/><rect class="cls-1" x="332.03" width="10.98" height="121.87"/><path class="cls-3" d="M330.24,153.58q-13,12.84-31.7,12.83t-31.71-12.83q-13-12.84-13-31.71t13-31.7q13-12.84,31.71-12.84a43.43,43.43,0,0,1,31.7,12.84q13,12.84,13,31.7T330.24,153.58Zm-55.5-7.82a33.87,33.87,0,0,0,47.6,0A32.65,32.65,0,0,0,332,121.87,32.64,32.64,0,0,0,322.34,98a33.85,33.85,0,0,0-47.6,0,32.64,32.64,0,0,0-9.69,23.88A32.65,32.65,0,0,0,274.74,145.76Z"/></g></g></svg>